P3
16 1
255
0 0 0
0 13 85
103 116 85
110 51 69
170 170 170
119 132 204
137 150 119
144 85 103
178 119 137
18 31 0
51 51 51
51 64 136
59 0 18
69 82 51
85 85 85
85 98 170
